<svg xmlns="http://www.w3.org/2000/svg" viewBox="0 0 504 504" style="enable-background:new 0 0 504 504" xml:space="preserve">
    <path style="fill:#e36d60" d="M248 298.6 92 206.2v183.2l156 92V298.6z"/>
    <circle style="fill:#df5c4e" cx="252" cy="31" r="10"/>
    <path style="fill:#df5c4e" d="M16 428.6c-5.6 0-10 4.4-10 10s4.4 10 10 10 10-4.4 10-10c-.4-5.6-4.8-10-10-10zM488 448.2c5.6 0 10-4.4 10-10s-4.4-10-10-10-10 4.4-10 10c.4 5.6 4.8 10 10 10z"/>
    <path d="M250 483.8c-2.4 0-4-1.6-4-4v-368c0-2.4 1.6-4 4-4s4 1.6 4 4v368c0 2.4-1.6 4-4 4zM250 79.8c-2.4 0-4-1.6-4-4v-32c0-2.4 1.6-4 4-4s4 1.6 4 4v32c0 2.4-1.6 4-4 4zM90 391.8c-2.4 0-4-1.6-4-4v-184c0-2.4 1.6-4 4-4s4 1.6 4 4v184c0 2.4-1.6 4-4 4zM411.2 395c-2.4 0-4-2-4-4l.4-188c0-2.4 1.6-4 4-4s4 1.6 4 4l-.4 188c0 2.4-1.6 4-4 4z"/>
    <path d="M252 47c-8.8 0-16-7.2-16-16s7.2-16 16-16 16 7.2 16 16-7.2 16-16 16zm0-24c-4.4 0-8 3.6-8 8s3.6 8 8 8 8-3.6 8-8-3.6-8-8-8zM16 454.6c-8.8 0-16-7.2-16-16s7.2-16 16-16 16 7.2 16 16-7.2 16-16 16zm0-24c-4.4 0-8 3.6-8 8s3.6 8 8 8 8-3.6 8-8-3.6-8-8-8zM94 393.8c-1.2 0-2.8-.8-3.6-2-1.2-2-.4-4.4 1.6-5.6l276-162.4c2-1.2 4.4-.4 5.6 1.6 1.2 2 .4 4.4-1.6 5.6L96 393.4c-.8.4-1.2.4-2 .4z"/>
    <path d="M26 436.6c-1.2 0-2.4-.8-3.2-2-1.2-2-.8-4.4 1.2-5.6l39.6-25.6c2-1.2 4.4-.8 5.6 1.2s.8 4.4-1.2 5.6l-39.6 25.6c-.8.4-1.6.8-2.4.8zM411.2 395c-.8 0-1.2 0-2-.4L90 206.6c-2-1.2-2.4-3.6-1.6-5.6 1.2-2 3.6-2.4 5.6-1.6l319.2 188c2 1.2 2.4 3.6 1.6 5.6-.8 1.2-2.4 2-3.6 2z"/>
    <path d="M251.6 489c-1.2 0-2.8-.8-3.6-2-1.2-2-.4-4.4 1.6-5.6l159.6-94c2-1.2 4.4-.4 5.6 1.6 1.2 2 .4 4.4-1.6 5.6l-159.6 94c-.8.4-1.2.4-2 .4z"/>
    <path d="M251.6 488.6c-.8 0-1.6 0-2-.4L88 391.4c-2-1.2-2.4-3.6-1.2-5.6s3.6-2.4 5.6-1.2L254 481.4c2 1.2 2.4 3.6 1.2 5.6-.8.8-2.4 1.6-3.6 1.6zM249.2 449.8c-.8 0-1.2 0-2-.4l-156-92c-2-1.2-2.4-3.6-1.6-5.6s3.6-2.4 5.6-1.6l156 92c2 1.2 2.4 3.6 1.6 5.6-.8 1.2-2.4 2-3.6 2zM249.2 411.8c-.8 0-1.2 0-2-.4l-156-92c-2-1.2-2.4-3.6-1.6-5.6 1.2-2 3.6-2.4 5.6-1.6l156 92c2 1.2 2.4 3.6 1.6 5.6-.8 1.2-2.4 2-3.6 2zM249.2 337.4c-.8 0-1.2 0-2-.4l-156-92c-2-1.2-2.4-3.6-1.6-5.6 1.2-2 3.6-2.4 5.6-1.6l156 92c2 1.2 2.4 3.6 1.6 5.6-.8 1.2-2.4 2-3.6 2zM411.6 207c-.8 0-1.2 0-2-.4l-159.2-94c-2-1.2-2.4-3.6-1.6-5.6 1.2-2 3.6-2.4 5.6-1.6l159.2 94c2 1.2 2.4 3.6 1.6 5.6-.8 1.2-2.4 2-3.6 2z"/>
    <path d="M92.4 207c-1.2 0-2.8-.8-3.6-2-1.2-2-.4-4.4 1.6-5.6l158.8-94c2-1.2 4.4-.4 5.6 1.6 1.2 2 .4 4.4-1.6 5.6l-158.8 94c-.8.4-1.2.4-2 .4zM249.2 374.6c-.8 0-1.2 0-2-.4l-156-91.6c-2-1.2-2.4-3.6-1.6-5.6 1.2-2 3.6-2.4 5.6-1.6l156 91.6c2 1.2 2.4 3.6 1.6 5.6-.8 1.2-2.4 2-3.6 2zM488 454.6c-8.8 0-16-7.2-16-16s7.2-16 16-16 16 7.2 16 16-7.2 16-16 16zm0-24c-4.4 0-8 3.6-8 8s3.6 8 8 8 8-3.6 8-8-3.6-8-8-8z"/>
    <path d="M478 436.6c-.8 0-1.6-.4-2-.8l-39.6-25.6c-2-1.2-2.4-3.6-1.2-5.6s3.6-2.4 5.6-1.2l39.6 25.6c2 1.2 2.4 3.6 1.2 5.6-1.2 1.2-2.4 2-3.6 2z"/>
</svg>
